<svg width="24" height="20" viewBox="0 0 24 20" fill="none" xmlns="http://www.w3.org/2000/svg">
<path d="M21.3333 10V4.16669H23.6666V11.1667H21.3333M21.3333 15.8334H23.6666V13.5H21.3333M9.66659 11.1667C12.7816 11.1667 18.9999 12.73 18.9999 15.8334V19.3334H0.333252V15.8334C0.333252 12.73 6.55159 11.1667 9.66659 11.1667ZM9.66659 0.666687C10.9043 0.666687 12.0912 1.15835 12.9664 2.03352C13.8416 2.90869 14.3333 4.09568 14.3333 5.33335C14.3333 6.57103 13.8416 7.75802 12.9664 8.63319C12.0912 9.50836 10.9043 10 9.66659 10C8.42891 10 7.24192 9.50836 6.36675 8.63319C5.49158 7.75802 4.99992 6.57103 4.99992 5.33335C4.99992 4.09568 5.49158 2.90869 6.36675 2.03352C7.24192 1.15835 8.42891 0.666687 9.66659 0.666687ZM9.66659 13.3834C6.20159 13.3834 2.54992 15.0867 2.54992 15.8334V17.1167H16.7833V15.8334C16.7833 15.0867 13.1316 13.3834 9.66659 13.3834ZM9.66659 2.88335C9.01681 2.88335 8.39364 3.14148 7.93417 3.60094C7.47471 4.06041 7.21659 4.68357 7.21659 5.33335C7.21659 5.98313 7.47471 6.6063 7.93417 7.06577C8.39364 7.52523 9.01681 7.78335 9.66659 7.78335C10.3164 7.78335 10.9395 7.52523 11.399 7.06577C11.8585 6.6063 12.1166 5.98313 12.1166 5.33335C12.1166 4.68357 11.8585 4.06041 11.399 3.60094C10.9395 3.14148 10.3164 2.88335 9.66659 2.88335Z" fill="black"/>
</svg>
